<?xml version="1.0" standalone="no"?>
<!DOCTYPE svg PUBLIC "-//W3C//DTD SVG 20010904//EN"
 "http://www.w3.org/TR/2001/REC-SVG-20010904/DTD/svg10.dtd">
<svg version="1.0" xmlns="http://www.w3.org/2000/svg"
 width="300.000000pt" height="307.000000pt" viewBox="0 0 300.000000 307.000000"
 preserveAspectRatio="xMidYMid meet">
<metadata>
Created by potrace 1.10, written by Peter Selinger 2001-2011
</metadata>
<g transform="translate(0.000000,307.000000) scale(0.100000,-0.100000)"
fill="#000000" stroke="none">
<path d="M1313 2908 c-88 -93 -143 -205 -143 -295 0 -40 2 -40 -95 0 -33 14
-81 28 -107 32 l-47 7 9 -33 c4 -19 11 -53 14 -77 l6 -42 -50 25 c-55 28 -139
51 -213 58 -40 4 -47 2 -43 -12 18 -62 27 -107 34 -174 l8 -77 -63 0 c-71 0
-191 -24 -218 -44 -16 -11 -15 -16 10 -67 15 -30 36 -67 47 -82 11 -16 19 -29
17 -31 -2 -1 -33 -8 -69 -15 -58 -11 -182 -57 -219 -80 -11 -7 -6 -21 25 -72
21 -35 61 -95 88 -133 34 -47 46 -71 37 -74 -19 -6 -134 -96 -138 -107 -2 -6
24 -33 56 -60 33 -28 60 -52 60 -55 1 -3 -16 -14 -36 -25 -68 -36 -233 -216
-233 -254 0 -28 193 -94 300 -102 50 -4 53 -7 31 -37 -37 -53 -116 -230 -107
-239 1 -2 20 4 40 12 44 18 206 58 212 52 3 -2 -4 -38 -15 -78 -11 -41 -23
-101 -27 -133 -7 -59 -7 -59 17 -52 59 17 175 46 184 46 7 0 10 -51 7 -155 -4
-136 -3 -155 11 -155 30 0 185 61 241 95 58 35 66 35 66 -1 0 -40 86 -310 106
-333 6 -7 137 84 192 134 29 26 64 67 79 92 14 24 29 41 33 36 15 -15 60 -154
60 -184 0 -16 4 -29 8 -29 10 0 104 97 125 129 l16 25 15 -35 c14 -33 32 -127
38 -194 3 -29 5 -28 60 43 69 89 122 192 145 287 10 39 18 71 19 73 1 2 21 -9
44 -23 68 -43 177 -95 253 -121 l70 -24 -6 99 -5 98 42 -23 c37 -20 215 -78
222 -72 9 10 -103 306 -143 379 -2 3 41 11 94 17 54 7 123 18 153 25 l54 12
-37 41 c-20 23 -37 44 -37 46 0 3 26 8 59 11 32 4 97 20 145 38 83 30 86 32
80 57 -28 118 -87 239 -152 313 l-40 44 64 41 63 42 -52 34 c-29 19 -67 43
-86 52 l-33 18 48 50 c55 55 113 93 161 103 l32 6 -55 49 c-67 59 -173 116
-247 133 l-56 12 34 54 c35 55 100 200 93 207 -3 2 -38 9 -80 15 l-76 12 -6
61 c-4 34 -14 98 -23 143 -15 81 -16 83 -42 77 -28 -7 -146 -46 -172 -58 -17
-7 -20 1 -65 142 -3 9 -14 8 -44 -8 l-40 -20 0 22 c-1 35 -32 96 -84 166 l-48
62 -59 -41 c-32 -23 -82 -66 -110 -96 -28 -30 -52 -53 -53 -51 -1 2 -11 23
-21 47 -24 55 -72 131 -82 131 -5 0 -28 -25 -53 -54 l-44 -55 -32 48 c-37 54
-151 171 -168 171 -7 0 -30 -19 -53 -42z m130 -79 c36 -39 72 -85 82 -102 17
-32 16 -33 -18 -89 -40 -68 -97 -232 -97 -282 0 -47 -11 -45 -35 7 -11 23 -55
77 -99 121 l-79 78 11 64 c6 35 22 88 35 117 27 59 104 157 123 157 7 0 42
-32 77 -71z m616 -145 c12 -23 21 -54 21 -70 0 -25 -9 -34 -71 -69 -38 -21
-97 -61 -130 -87 l-59 -48 -1 38 c0 20 -8 67 -18 105 l-17 68 35 40 c19 23 62
63 95 90 l61 49 32 -37 c17 -21 41 -56 52 -79z m-366 46 c70 -125 105 -297 87
-435 -11 -85 -40 -184 -73 -250 l-20 -40 -12 41 c-14 48 -55 124 -67 124 -5 0
2 -19 14 -42 32 -62 31 -147 -1 -182 -46 -49 -64 -32 -71 69 l-5 70 -19 -40
c-11 -22 -20 -57 -19 -78 1 -43 -15 -45 -35 -5 -22 46 -44 227 -37 306 8 103
39 214 84 307 37 78 123 205 138 205 5 0 21 -23 36 -50z m-559 -183 c82 -44
172 -137 224 -232 37 -69 42 -86 42 -144 0 -36 5 -86 11 -110 12 -55 4 -65
-16 -20 l-16 34 8 -35 c11 -47 7 -128 -7 -144 -14 -18 -120 -56 -153 -56 -17
0 -32 9 -43 25 -9 14 -19 24 -21 21 -3 -2 7 -21 21 -43 13 -21 28 -51 32 -67
6 -26 5 -28 -17 -21 -66 21 -136 88 -177 170 -42 85 -46 119 -47 406 l0 276
50 -14 c28 -8 77 -29 109 -46z m1103 -192 c8 -106 -6 -143 -70 -182 -99 -60
-141 -103 -289 -304 -33 -45 -37 -48 -40 -27 -3 20 -8 23 -40 20 -26 -2 -38 1
-38 10 1 22 36 92 53 107 10 7 17 18 17 24 0 6 -21 -9 -46 -33 -40 -39 -45
-42 -39 -20 4 14 17 45 28 70 30 65 31 68 7 40 -12 -14 -33 -50 -48 -80 -15
-32 -28 -48 -30 -39 -1 9 13 45 32 80 43 81 74 181 82 270 6 64 10 72 44 103
54 49 151 113 238 156 l77 39 28 -82 c16 -45 31 -113 34 -152z m-1417 164 c19
-7 57 -23 84 -36 45 -23 48 -26 42 -55 -3 -17 -6 -71 -6 -120 l0 -89 -37 25
c-20 14 -69 35 -110 48 l-73 23 0 45 c0 25 -7 76 -15 115 -8 38 -15 71 -15 71
0 4 99 -18 130 -27z m1629 -76 c6 -32 14 -85 17 -119 l7 -61 -62 -7 c-34 -4
-80 -14 -102 -22 -23 -7 -43 -14 -44 -14 -2 0 1 17 7 38 9 31 7 126 -4 172 -3
13 119 69 153 70 12 0 19 -15 28 -57z m-1678 -183 c35 -11 88 -33 117 -50 l52
-30 0 -63 c0 -77 22 -164 57 -229 25 -46 95 -119 139 -145 18 -10 16 -12 -19
-27 -21 -9 -35 -21 -32 -26 3 -5 -27 1 -67 12 -197 55 -315 145 -465 353 -66
91 -117 185 -106 195 34 34 230 40 324 10z m1826 -48 l22 -7 -27 -60 c-83
-185 -208 -320 -383 -414 -73 -39 -222 -91 -260 -91 -41 0 -8 39 50 59 48 16
112 54 140 85 l24 26 -54 -29 c-56 -31 -167 -71 -194 -71 -12 0 -14 4 -5 19 5
11 16 49 24 85 35 168 201 333 391 387 60 18 227 24 272 11z m-2057 -204 c19
-29 67 -84 105 -124 l70 -72 -90 -5 c-61 -4 -113 -14 -161 -31 -39 -14 -74
-26 -76 -26 -6 0 -107 142 -137 193 l-23 37 49 21 c47 20 183 57 213 58 8 0
31 -23 50 -51z m1179 -98 c5 0 11 -14 15 -30 4 -25 15 -35 53 -51 30 -13 59
-18 77 -15 28 6 28 5 24 -32 -5 -38 15 -137 32 -157 6 -7 7 -26 4 -44 -4 -17
-2 -37 4 -43 6 -7 8 -34 5 -61 -5 -40 -10 -50 -34 -63 -28 -14 -64 -66 -53
-77 3 -3 0 -16 -7 -29 -7 -12 -13 -31 -14 -41 -1 -10 -12 -25 -25 -34 l-23
-16 49 -15 c27 -8 69 -27 93 -43 24 -17 45 -28 47 -26 6 6 -54 50 -101 75
l-40 21 39 1 c21 0 65 -7 98 -16 33 -8 62 -13 64 -11 10 10 -85 51 -132 56
-44 5 -52 9 -44 21 7 11 34 16 110 18 87 3 113 0 183 -22 98 -30 186 -81 274
-157 72 -63 194 -199 188 -210 -10 -15 -206 -32 -302 -26 -132 7 -150 16 -203
89 -54 74 -141 148 -218 187 -67 33 -112 46 -112 31 0 -5 -11 -10 -24 -10 -14
0 -28 -5 -32 -11 -4 -7 -22 -9 -49 -5 -34 6 -44 4 -49 -10 -4 -12 -13 -14 -32
-10 -23 6 -25 5 -18 -16 4 -13 7 -53 8 -91 0 -65 1 -67 15 -40 8 16 18 44 21
63 l7 35 36 -75 c40 -85 67 -201 67 -287 -1 -136 -62 -300 -155 -417 l-48 -59
-27 75 c-15 41 -64 138 -109 215 -106 183 -125 234 -126 343 0 76 3 91 29 138
16 28 32 52 35 52 3 0 7 -21 8 -46 2 -55 46 -150 97 -209 41 -48 58 -40 29 13
-27 47 -50 129 -61 215 -11 82 2 96 49 51 43 -40 53 -62 38 -80 -8 -10 -8 -14
0 -14 20 0 71 82 71 114 l0 31 -23 -26 c-27 -32 -33 -32 -71 4 -17 15 -38 27
-48 27 -19 0 -58 -45 -58 -67 0 -11 -4 -11 -20 -3 -17 9 -19 18 -15 60 4 47 3
51 -52 119 -31 39 -60 71 -64 71 -14 0 -49 42 -43 52 3 5 0 15 -6 23 -14 17
-20 105 -9 120 10 14 14 107 4 128 -9 21 19 57 46 57 19 0 59 44 59 65 0 7 26
23 58 35 64 26 110 63 118 97 7 27 19 29 41 7 10 -10 26 -14 42 -11 15 3 35
-1 45 -9 29 -21 52 -17 87 14 31 28 33 28 51 10 10 -10 22 -18 27 -18z m901 6
c59 -20 200 -99 200 -112 0 -2 -19 -13 -42 -25 -24 -12 -68 -48 -98 -80 l-56
-58 -84 34 c-47 19 -120 42 -162 52 l-78 16 33 20 c17 11 66 55 107 97 41 43
82 78 92 79 9 0 48 -10 88 -23z m-1790 -180 c69 -37 223 -86 271 -86 33 0 44
-13 24 -30 -11 -10 -28 -7 -82 14 -91 35 -106 32 -19 -3 38 -16 78 -39 89 -52
18 -22 18 -23 0 -30 -10 -4 -43 -8 -73 -9 -50 -1 -53 -2 -36 -15 11 -8 36 -17
55 -21 45 -7 65 -13 60 -19 -3 -2 -47 -11 -99 -19 -119 -19 -194 -39 -278 -73
l-65 -26 -56 18 c-106 33 -281 136 -342 201 l-24 26 35 30 c48 40 183 104 250
117 30 6 64 13 75 15 11 3 49 3 85 1 50 -3 80 -12 130 -39z m1598 -62 c92 -27
218 -82 290 -128 l43 -27 -66 -45 c-139 -96 -336 -176 -435 -177 -30 -1 -93 9
-139 22 -67 19 -102 22 -168 19 -46 -2 -83 -2 -83 2 0 4 12 17 26 31 36 33
138 34 204 0 l45 -22 -36 34 c-30 29 -79 53 -148 73 -11 4 -11 8 1 26 24 35
78 60 122 54 27 -3 35 -1 28 6 -6 6 -34 13 -62 16 -38 3 -55 1 -69 -12 -25
-23 -37 -4 -22 32 10 23 23 31 80 45 38 10 99 33 137 52 80 40 110 40 252 -1z
m-1890 -298 c34 -14 68 -26 77 -26 25 0 17 -17 -17 -39 -18 -11 -64 -52 -103
-90 -43 -44 -78 -71 -91 -71 -53 0 -204 33 -252 55 -48 22 -52 26 -42 45 20
38 134 152 189 189 l55 38 62 -38 c34 -21 89 -49 122 -63z m572 53 c0 -7 8
-18 18 -25 15 -12 14 -13 -15 -14 -58 0 -119 -35 -145 -83 -9 -17 -7 -17 29 1
44 23 144 54 151 48 7 -7 -36 -65 -87 -120 l-46 -49 43 24 c24 13 66 45 94 72
28 26 52 46 55 43 7 -7 -25 -64 -74 -134 -88 -124 -200 -181 -423 -216 -249
-39 -288 -46 -333 -60 -26 -8 -47 -13 -47 -12 0 12 61 125 96 177 80 121 238
249 364 295 53 19 253 62 293 63 15 1 27 -4 27 -10z m1611 -71 c48 -60 115
-195 124 -249 l7 -37 -65 -21 c-36 -12 -97 -25 -135 -30 l-71 -7 -83 80 c-46
45 -111 100 -145 122 l-61 41 66 18 c81 22 212 76 267 110 22 13 43 25 47 25
4 0 26 -24 49 -52z m-1456 -142 l29 -38 -38 -74 c-23 -46 -55 -89 -83 -114
-57 -50 -47 -52 20 -4 36 26 48 31 42 18 -20 -48 -27 -116 -18 -163 9 -47 8
-51 -25 -97 -93 -128 -243 -239 -411 -303 l-50 -19 -7 46 c-16 104 39 352 101
458 19 32 32 43 58 48 57 11 170 71 225 121 55 49 111 135 113 170 0 16 2 17
7 5 4 -9 20 -33 37 -54z m405 -94 c16 -16 31 -45 35 -64 17 -91 98 -179 196
-213 49 -18 52 -18 44 -5 -4 6 -36 25 -71 41 -36 17 -72 42 -81 55 -12 18 -82
197 -83 212 0 1 14 2 30 2 44 0 85 -24 159 -91 58 -54 81 -69 81 -54 0 3 -21
28 -46 55 -57 61 -46 65 23 8 97 -81 177 -201 224 -335 23 -68 49 -218 49
-285 l0 -47 -82 34 c-111 47 -218 113 -311 192 -73 62 -77 67 -77 107 -1 112
-44 258 -104 359 -37 62 -31 74 14 29z m-892 -207 c-11 -20 -31 -68 -43 -108
l-23 -72 -93 -21 c-52 -12 -95 -21 -97 -19 -3 3 13 79 34 161 l16 61 97 15
c143 23 134 24 109 -17z m1508 -71 l52 -7 40 -86 c39 -84 92 -223 92 -241 0
-11 -87 19 -160 55 l-55 27 -21 87 c-12 48 -31 107 -43 131 -11 24 -21 46 -21
48 0 3 14 2 32 -2 18 -3 55 -9 84 -12z m-1036 -119 c0 -19 48 -115 101 -202
41 -66 41 -67 25 -101 -29 -60 -67 -101 -155 -167 l-85 -64 -14 32 c-24 58
-61 181 -75 247 l-13 64 57 48 c32 26 77 72 101 103 44 57 58 66 58 40z m599
-157 l25 -18 -18 -76 c-18 -74 -86 -224 -125 -273 l-19 -24 -7 50 c-3 27 -16
72 -29 98 l-22 49 33 65 c17 35 40 97 49 137 l17 73 36 -32 c20 -18 47 -40 60
-49z"/>
</g>
</svg>
